HIERARCHY
ROOT Hips
{
  OFFSET -35.4901 99.2528 17.4586
  CHANNELS 6 Xposition Yposition Zposition Zrotation Xrotation Yrotation
  JOINT LeftUpLeg
  {
    OFFSET 8.64259 1.95398 -2.38835
    CHANNELS 3 Zrotation Xrotation Yrotation
    JOINT LeftLeg
    {
      OFFSET 43.7702 0 0
      CHANNELS 3 Zrotation Xrotation Yrotation
      JOINT LeftFoot
      {
        OFFSET 40.6238 0 0
        CHANNELS 3 Zrotation Xrotation Yrotation
        JOINT LeftToeBase
        {
          OFFSET 12.7242 0 0
          CHANNELS 3 Zrotation Xrotation Yrotation
          End Site
          {
            OFFSET 0 0 0
          }
        }
      }
    }
  }
  JOINT RightUpLeg
  {
    OFFSET -8.2249 1.95398 -2.59336
    CHANNELS 3 Zrotation Xrotation Yrotation
    JOINT RightLeg
    {
      OFFSET 43.5653 0 0
      CHANNELS 3 Zrotation Xrotation Yrotation
      JOINT RightFoot
      {
        OFFSET 40.6238 0 0
        CHANNELS 3 Zrotation Xrotation Yrotation
        JOINT RightToeBase
        {
          OFFSET 12.7242 0 0
          CHANNELS 3 Zrotation Xrotation Yrotation
          End Site
          {
            OFFSET 0 0 0
          }
        }
      }
    }
  }
  JOINT Spine
  {
    OFFSET 0.165834 0.87714 6.61349
    CHANNELS 3 Zrotation Xrotation Yrotation
    JOINT Spine1
    {
      OFFSET 7.38963 1.71661e-005 0
      CHANNELS 3 Zrotation Xrotation Yrotation
      JOINT Spine2
      {
        OFFSET 11.9445 1.14441e-005 0
        CHANNELS 3 Zrotation Xrotation Yrotation
        JOINT Spine3
        {
          OFFSET 14.7254 4.19617e-005 0
          CHANNELS 3 Zrotation Xrotation Yrotation
          JOINT Spine4
          {
            OFFSET 10.9679 0 0
            CHANNELS 3 Zrotation Xrotation Yrotation
            JOINT RightShoulder
            {
              OFFSET 2.46616 -1.6653 3.69651
              CHANNELS 3 Zrotation Xrotation Yrotation
              JOINT RightArm
              {
                OFFSET 13.0012 0 0
                CHANNELS 3 Zrotation Xrotation Yrotation
                JOINT RightForeArm
                {
                  OFFSET 28.7848 1.52588e-005 0
                  CHANNELS 3 Zrotation Xrotation Yrotation
                  JOINT RightHand
                  {
                    OFFSET 26.5688 1.52588e-005 0
                    CHANNELS 3 Zrotation Xrotation Yrotation
                    End Site
                    {
                      OFFSET 0 0 0
                    }
                  }
                }
              }
            }
            JOINT LeftShoulder
            {
              OFFSET 2.38034 -1.29275 -3.7523
              CHANNELS 3 Zrotation Xrotation Yrotation
              JOINT LeftArm
              {
                OFFSET 16.3182 6.10351e-005 0
                CHANNELS 3 Zrotation Xrotation Yrotation
                JOINT LeftForeArm
                {
                  OFFSET 27.0901 0 0
                  CHANNELS 3 Zrotation Xrotation Yrotation
                  JOINT LeftHand
                  {
                    OFFSET 24.5451 1.52588e-005 0
                    CHANNELS 3 Zrotation Xrotation Yrotation
                    End Site
                    {
                      OFFSET 0 0 0
                    }
                  }
                }
              }
            }
            JOINT Neck
            {
              OFFSET 5.0226 -0.0266342 0
              CHANNELS 3 Zrotation Xrotation Yrotation
              JOINT Head
              {
                OFFSET 6.69364 2.86102e-005 0
                CHANNELS 3 Zrotation Xrotation Yrotation
                End Site
                {
                  OFFSET 0 0 0
                }
              }
            }
          }
        }
      }
    }
  }
}
MOTION
Frames:	7
Frame Time:	0.0416667
40.2488 97.5281 20.6306 101.665 -60.1937 104.495 -175.493 -5.97277 89.6198 -24.0627 26.3444 -0.082311 80.6303 9.70293 -0.695918 8.54616 0.315531 1.10205 175.758 16.6389 91.2062 -14.8745 -8.82016 -1.78426 63.9029 -2.98716 -1.20693 25.5108 -1.7501 4.82962 -0.796982 8.06157 -90.5066 10.7438 -1.82051 -0.839945 -0.926109 -1.85572 -0.758994 -23.4666 -1.48392 -1.34831 -3.45395 -1.48392 -1.34831 88.5111 -33.6054 -108.245 40.7823 -1.03394 7.70162 1.93894 -27.2227 -14.2543 -22.6594 0.0120389 -8.73361 -84.7769 -45.9739 86.0503 -22.5465 11.5997 -35.6861 6.05612 9.99079 -13.0422 3.11445 -0.235784 -7.37405 4.42919 -0.737013 -10.4721 -3.0243 1.12891 1.41156 
43.8299 95.5004 29.662 99.7082 -56.2178 102.395 -172.178 -12.0056 94.1727 -23.2613 32.793 -1.20272 83.6863 12.0144 -0.465541 10.7013 1.62047 -0.570892 174.287 18.9283 94.2198 -6.42489 -6.81715 0.924868 64.2633 -2.21168 1.82147 30.0082 -0.75225 1.91361 -0.857855 8.07127 -90.5318 10.7236 -1.95344 -0.877992 -0.946109 -1.99019 -0.791138 -23.4874 -1.59928 -1.42455 -3.47476 -1.59927 -1.42456 88.7107 -34.6533 -107.479 40.3728 0.481961 9.1087 3.71365 -27.8264 -11.3971 -20.7912 0.00632626 -9.20859 -84.7548 -45.7918 86.0564 -24.0012 12.513 -37.6037 9.21701 13.298 -19.5913 1.57379 -0.230136 -8.60605 5.32348 -1.23027 -12.6636 -3.0653 1.12642 1.69898 
49.0825 94.435 39.4888 99.8485 -52.4948 102.793 -170.166 -18.7894 97.2066 -24.0145 35.9552 1.26425 79.0895 10.1125 2.01114 21.1686 5.4555 -7.30296 176.746 21.6951 95.6884 -18.9629 -12.2295 -0.723043 56.6511 1.06328 -1.10234 24.5404 -1.88283 5.12644 -1.00699 8.0415 -90.7008 10.7787 -2.32846 -1.17797 -0.890604 -2.37805 -1.07431 -23.4332 -1.8668 -1.82338 -3.42053 -1.86682 -1.82338 89.4921 -35.5089 -105.741 39.2867 -0.0611597 7.47497 4.88057 -27.8697 -8.1559 -20.8113 -0.377534 -6.67429 -84.6386 -47.2911 86.44 -27.2053 11.9855 -33.9337 10.4622 16.6608 -18.8809 2.47272 -0.23992 -7.8998 5.95204 -0.816221 -10.1211 -3.70903 1.13193 0.023389 
54.5692 94.1774 48.4824 100.228 -49.2297 104.095 -169.438 -13.0411 99.7406 -43.1327 37.6852 6.29527 64.86 2.89181 1.08882 28.2344 6.84807 -11.7003 176.19 21.3069 96.9162 -33.2923 -8.6351 -0.127224 63.7264 -2.06177 -1.59931 21.9274 -0.728469 2.52121 -0.89768 7.96071 -91.0297 10.9307 -2.26345 -1.83501 -0.739419 -2.342 -1.73362 -23.273 -1.60748 -2.43027 -3.26034 -1.60751 -2.43028 89.5726 -33.7622 -106.196 39.5683 -0.584364 5.85577 4.35138 -26.9413 -9.40922 -20.8689 -0.0352399 -8.76347 -85.0273 -47.5715 85.8734 -29.2698 15.4716 -28.4418 3.80981 14.4935 -6.83097 0.381691 -0.123506 -6.51336 6.05726 -0.667657 -7.3058 -4.15351 0.73006 0.690282 
58.9754 94.6861 55.5904 101.818 -46.5471 105.369 -171.008 2.01256 100.742 -64.1126 24.0658 6.83507 58.9133 0.454939 -3.03615 18.9896 -1.11725 2.51997 175.788 15.0896 97.6749 -36.4377 -6.95047 0.0224208 71.4275 -5.32934 -3.63625 23.6939 -0.811401 2.59069 -0.455352 8.18393 -91.1087 10.4867 -1.41567 -2.07697 -1.185 -1.5057 -2.01268 -23.7091 -0.726216 -2.40624 -3.69647 -0.726212 -2.40624 88.9715 -33.4433 -107.443 36.9599 -3.7473 0.34282 3.20622 -26.9699 -12.418 -22.7847 0.0588865 -8.95723 -85.4306 -48.8421 85.4285 -27.6786 17.3859 -23.0976 0.379265 19.0777 -2.20048 -4.41405 -0.0360853 -7.81163 7.04495 -1.13649 -5.9583 -2.67577 0.0837896 -0.370136 
63.5381 96.2997 61.4997 101.136 -45.5224 101.972 -173.607 16.0588 94.5001 -64.2839 9.74468 3.87637 70.4458 5.6201 1.21243 17.0199 -0.138587 1.13009 174.796 8.10246 95.2607 -32.8365 -6.48448 -0.864384 75.3067 -6.45357 -2.85226 23.3448 -0.574447 2.06038 0.0963147 8.23009 -90.7457 10.4119 -0.149784 -1.4681 -1.25984 -0.214251 -1.46009 -23.7884 0.298315 -1.44526 -3.77575 0.298304 -1.44526 88.3094 -33.0183 -108.846 32.7557 -4.78113 -7.14273 2.57932 -27.5757 -13.1825 -24.0696 -0.0473134 -8.25807 -85.0804 -49.4017 86.0396 -27.4228 14.583 -14.6375 1.48494 14.405 -3.96382 -1.32833 -0.104283 -6.27627 6.06394 -1.88045 -5.32628 -0.980724 -0.835765 -1.3128 
68.9844 97.3437 67.1299 99.5833 -46.7615 97.2554 -176.287 22.7269 88.6641 -43.3225 2.19976 -0.281244 70.4611 5.85474 0.0249338 14.5157 1.26539 -0.535498 173.134 2.2522 91.2179 -28.8601 -10.0341 -1.86542 77.8299 -7.62745 -4.55596 25.0076 -0.912172 2.74414 0.706999 8.17482 -90.2476 10.5279 1.29443 -0.607573 -1.14254 1.26644 -0.663977 -23.6827 1.41715 -0.190391 -3.67003 1.41718 -0.190386 88.2907 -30.5804 -109.881 30.4942 -3.63488 -13.1622 0.909975 -28.6824 -16.3317 -24.1304 -0.214152 -7.47431 -84.4834 -49.4847 86.9567 -24.3587 13.904 -7.68057 1.87313 9.93499 -7.44206 -0.399402 -0.124826 -6.3614 4.63569 -2.20128 -2.66194 -0.193107 -1.7327 -3.17584 
